# xmcd
#
# Track frame offsets: 
#        150
#        18196
#        29255
#        46812
#        65586
#        80330
#        94928
#        108712
#        120222
#        130778
#        145655
#        158289
#        170941
#        183578
#        193072
#        203656
#        216825
#        228305
#        252566
#        263082
#        275339
#        287459
#
# Disc length: 4059 seconds
#
# Revision: 3
# Processed by: cddbd v1.5.2PL0 Copyright (c) Steve Scherf et al.
# Submitted via: ExactAudioCopy v1.1
#
DISCID=330fd916
DTITLE=The Buzzcocks - A Different Kind Of Tension - Disc 2
DYEAR=1979
DGENRE=Rock
TTITLE0=Are Everything
TTITLE1=Why She's A Girl From The Chainstore
TTITLE2=Airwaves Dream
TTITLE3=Strange Thing
TTITLE4=What Do You Know?
TTITLE5=Running Free
TTITLE6=I Look Alone
TTITLE7=You Say You Don't Love Me (demo)
TTITLE8=I Don't Know What To Do With My Life (demo)
TTITLE9=Harmony In My Head (demo)
TTITLE10=I Don't Know (demo)
TTITLE11=Run Away From Home (demo)
TTITLE12=The Drive System (demo)
TTITLE13=Mad Mad Judy (demo)
TTITLE14=Jesus Made Me Feel Guilty (demo)
TTITLE15=Something's Gone Wrong Again (demo - backing track)
TTITLE16=You Know You Can't Help It (demo)
TTITLE17=I Believe (demo)
TTITLE18=Everybody's Happy Nowadays (BBC 10-18-78 John Peel)
TTITLE19=I Don't Know What To Do With My Life (BBC 05-28-79 John Peel)
TTITLE20=Mad Mad Judy (BBC 05-28-79 John Peel)
TTITLE21=Hollow Inside (BBC 05-28-79 John Peel)
EXTD=
EXTT0=
EXTT1=
EXTT2=
EXTT3=
EXTT4=
EXTT5=
EXTT6=
EXTT7=
EXTT8=
EXTT9=
EXTT10=
EXTT11=
EXTT12=
EXTT13=
EXTT14=
EXTT15=
EXTT16=
EXTT17=
EXTT18=
EXTT19=
EXTT20=
EXTT21=
PLAYORDER=
